<?xml version="1.0" encoding="UTF-8" standalone="no"?>
<svg xmlns:dc="http://purl.org/dc/elements/1.1/" xmlns:cc="http://creativecommons.org/ns#" xmlns:rdf="http://www.w3.org/1999/02/22-rdf-syntax-ns#" xmlns:svg="http://www.w3.org/2000/svg" xmlns="http://www.w3.org/2000/svg" xmlns:sodipodi="http://sodipodi.sourceforge.net/DTD/sodipodi-0.dtd" xmlns:inkscape="http://www.inkscape.org/namespaces/inkscape" width="121mm" height="52mm" viewBox="0 0 121 52" version="1.1" id="logo">
  <defs id="defs2">
    <rect x="7.0065813" y="75.255615" width="187.59247" height="61.519039" id="rect12" />
    <clipPath clipPathUnits="userSpaceOnUse" id="clipPath3265">
      <path id="path3267" d="M 130.51038,-0.33331298 143.81034,12.766662 h 40.25129 V 19.31665 H 150.0606 l 13.43484,13.100492 h 20.56619 v 19.650482 h 0.339 12.76149 39.79551 l 12.94443,-13.06277 V 12.766662 L 236.80156,-0.33331298 H 197.16212 184.40063 Z M 197.50112,12.766662 h 32.75046 l 6.54998,6.549988 v 13.090676 l -6.56032,6.559804 h -32.74012 z" />
    </clipPath>
  </defs>
  <path id="path3133-7" d="m 128.11016,46.762776 h 123.0593 m -123.0593,-3.177907 h 123.0593 m -123.0593,-3.177907 h 123.0593 m -123.0593,-3.17791 h 123.0593 m -123.0593,-3.177907 h 123.0593 m -123.0593,18.008148 h 123.0593 m -123.0593,-3.177897 h 123.0593 m -123.0593,-3.177917 h 123.0593 m -123.0593,-3.17791 h 123.0593 m -123.0593,-3.177907 h 123.0593 m -123.0593,-3.17791 h 123.0593 m -123.0593,-3.177917 h 123.0593 m -123.0593,18.008161 h 123.0593 m -123.0593,2.118607 h 123.0593 M 128.11016,16.042991 h 123.0593 m -123.0593,-3.177904 h 123.0593 M 128.11016,9.6871813 h 123.0593 M 128.11016,28.754628 h 123.0593 m -123.0593,-3.1779 h 123.0593 m -123.0593,-3.177917 h 123.0593 m -123.0593,-3.177908 h 123.0593 m -123.0593,-4.237214 h 123.0593 m -123.0593,-3.177904 h 123.0593 M 128.11016,8.6278649 h 123.0593 M 128.11016,27.695328 h 123.0593 m -123.0593,-3.177897 h 123.0593 m -123.0593,-3.17792 h 123.0593 m -123.0593,-3.17791 h 123.0593 M 128.11016,5.4499619 h 123.0593 m -123.0593,-1.059303 h 123.0593 M 128.11016,3.3313582 h 123.0593 m -123.0593,-1.059301 h 123.0593 m -123.0593,-1.059317 h 123.0593 M 128.11016,13.924388 h 123.0593 m -123.0593,-3.177911 h 123.0593 M 128.11016,7.5685629 h 123.0593 m -123.0593,-1.0593 h 123.0593 M 128.11016,47.822076 h 123.0593 m -123.0593,-3.177897 h 123.0593 m -123.0593,-3.17792 h 123.0593 m -123.0593,-3.177897 h 123.0593 m -123.0593,-3.177907 h 123.0593 m -123.0593,-3.17792 h 123.0593 m -123.0593,-1.0593 h 123.0593 m -123.0593,-1.059297 h 123.0593 m -123.0593,-3.17791 h 123.0593 m -123.0593,-3.177907 h 123.0593 m -123.0593,-3.17791 h 123.0593 m -123.0593,-3.177919 h 123.0593 M 128.11016,0.15344526 h 123.0593 m -123.0593,-1.05930897 h 123.0593 M 128.11016,-1.9651644 h 123.0593 M 128.11016,49.940686 h 123.0593" clip-path="url(#clipPath3265)" />
  <path class="d-letter solid" d="M 106.62668,32.93655 V 19.84604 l -6.55013,-6.55013 H 67.325923 V 39.49643 H 100.066 Z M 54.225672,52.59669 V 0.19565 h 52.401008 l 13.10026,13.10026 v 26.23816 l -12.94459,13.06262 z" id="path18" />
  <path class="f-letter solid" d="M 66.986869,52.59669 H 53.886608 V 32.9463 H 33.32028 L 19.885472,19.84604 H 53.886608 V 13.29591 H 13.635362 L 0.33535211,0.19565 H 66.986869 Z" id="path20" />
  <path id="path3133" d="m 128.11016,127.7253 h 123.0593 m -123.0593,-3.17791 h 123.0593 m -123.0593,-3.17791 h 123.0593 m -123.0593,-3.17791 h 123.0593 m -123.0593,-3.17791 h 123.0593 m -123.0593,18.00816 h 123.0593 m -123.0593,-3.1779 h 123.0593 M 128.11016,126.666 h 123.0593 m -123.0593,-3.17791 h 123.0593 m -123.0593,-3.17791 h 123.0593 m -123.0593,-3.17791 h 123.0593 m -123.0593,-3.17792 h 123.0593 m -123.0593,18.00817 h 123.0593 m -123.0593,2.11861 h 123.0593 M 128.11016,97.005498 h 123.0593 m -123.0593,-3.177904 h 123.0593 m -123.0593,-3.177906 h 123.0593 m -123.0593,19.067452 h 123.0593 m -123.0593,-3.1779 h 123.0593 m -123.0593,-3.17792 h 123.0593 m -123.0593,-3.17791 h 123.0593 m -123.0593,-4.237214 h 123.0593 m -123.0593,-3.177904 h 123.0593 m -123.0593,-3.177921 h 123.0593 m -123.0593,19.067469 h 123.0593 m -123.0593,-3.1779 h 123.0593 m -123.0593,-3.17792 h 123.0593 m -123.0593,-3.177912 h 123.0593 m -123.0593,-12.71164 h 123.0593 m -123.0593,-1.059303 h 123.0593 m -123.0593,-1.059301 h 123.0593 m -123.0593,-1.059301 h 123.0593 m -123.0593,-1.059317 h 123.0593 m -123.0593,12.711649 h 123.0593 m -123.0593,-3.177911 h 123.0593 m -123.0593,-3.177915 h 123.0593 m -123.0593,-1.0593 h 123.0593 M 128.11016,128.7846 h 123.0593 m -123.0593,-3.1779 h 123.0593 m -123.0593,-3.17792 h 123.0593 m -123.0593,-3.1779 h 123.0593 m -123.0593,-3.17791 h 123.0593 m -123.0593,-3.17792 h 123.0593 m -123.0593,-1.0593 h 123.0593 m -123.0593,-1.0593 h 123.0593 m -123.0593,-3.17791 h 123.0593 m -123.0593,-3.17791 h 123.0593 m -123.0593,-3.17791 h 123.0593 m -123.0593,-3.177921 h 123.0593 M 128.11016,81.115951 h 123.0593 m -123.0593,-1.059309 h 123.0593 m -123.0593,-1.059301 h 123.0593 m -123.0593,51.905869 h 123.0593" />
</svg>
